<svg xmlns="http://www.w3.org/2000/svg" version="1.1" xmlns:xlink="http://www.w3.org/1999/xlink" xmlns:svgjs="http://svgjs.dev/svgjs" viewBox="0 0 1422 800" opacity="0.15"><g stroke-width="1" stroke="hsl(231, 100%, 64%)" fill="none" stroke-linecap="butt"><line x1="0" y1="0" x2="80" y2="80" opacity="1.00"></line><line x1="80" y1="0" x2="160" y2="80" opacity="1.00"></line><line x1="240" y1="0" x2="160" y2="80" opacity="1.00"></line><line x1="240" y1="0" x2="320" y2="80" opacity="1.00"></line><line x1="320" y1="0" x2="400" y2="80" opacity="1.00"></line><line x1="480" y1="0" x2="400" y2="80" opacity="1.00"></line><line x1="560" y1="0" x2="480" y2="80" opacity="1.00"></line><line x1="560" y1="0" x2="640" y2="80" opacity="1.00"></line><line x1="720" y1="0" x2="640" y2="80" opacity="1.00"></line><line x1="720" y1="0" x2="800" y2="80" opacity="1.00"></line><line x1="880" y1="0" x2="800" y2="80" opacity="1.00"></line><line x1="880" y1="0" x2="960" y2="80" opacity="1.00"></line><line x1="1040" y1="0" x2="960" y2="80" opacity="1.00"></line><line x1="1040" y1="0" x2="1120" y2="80" opacity="1.00"></line><line x1="1120" y1="0" x2="1200" y2="80" opacity="1.00"></line><line x1="1200" y1="0" x2="1280" y2="80" opacity="1.00"></line><line x1="1280" y1="0" x2="1360" y2="80" opacity="1.00"></line><line x1="1360" y1="0" x2="1440" y2="80" opacity="1.00"></line><line x1="0" y1="80" x2="80" y2="160" opacity="0.91"></line><line x1="80" y1="80" x2="160" y2="160" opacity="0.91"></line><line x1="160" y1="80" x2="240" y2="160" opacity="0.91"></line><line x1="240" y1="80" x2="320" y2="160" opacity="0.91"></line><line x1="320" y1="80" x2="400" y2="160" opacity="0.91"></line><line x1="400" y1="80" x2="480" y2="160" opacity="0.91"></line><line x1="560" y1="80" x2="480" y2="160" opacity="0.91"></line><line x1="560" y1="80" x2="640" y2="160" opacity="0.91"></line><line x1="640" y1="80" x2="720" y2="160" opacity="0.91"></line><line x1="720" y1="80" x2="800" y2="160" opacity="0.91"></line><line x1="800" y1="80" x2="880" y2="160" opacity="0.91"></line><line x1="880" y1="80" x2="960" y2="160" opacity="0.91"></line><line x1="960" y1="80" x2="1040" y2="160" opacity="0.91"></line><line x1="1040" y1="80" x2="1120" y2="160" opacity="0.91"></line><line x1="1120" y1="80" x2="1200" y2="160" opacity="0.91"></line><line x1="1200" y1="80" x2="1280" y2="160" opacity="0.91"></line><line x1="1360" y1="80" x2="1280" y2="160" opacity="0.91"></line><line x1="1440" y1="80" x2="1360" y2="160" opacity="0.91"></line><line x1="0" y1="160" x2="80" y2="240" opacity="0.81"></line><line x1="80" y1="160" x2="160" y2="240" opacity="0.81"></line><line x1="160" y1="160" x2="240" y2="240" opacity="0.81"></line><line x1="240" y1="160" x2="320" y2="240" opacity="0.81"></line><line x1="320" y1="160" x2="400" y2="240" opacity="0.81"></line><line x1="480" y1="160" x2="400" y2="240" opacity="0.81"></line><line x1="480" y1="160" x2="560" y2="240" opacity="0.81"></line><line x1="640" y1="160" x2="560" y2="240" opacity="0.81"></line><line x1="640" y1="160" x2="720" y2="240" opacity="0.81"></line><line x1="720" y1="160" x2="800" y2="240" opacity="0.81"></line><line x1="800" y1="160" x2="880" y2="240" opacity="0.81"></line><line x1="880" y1="160" x2="960" y2="240" opacity="0.81"></line><line x1="960" y1="160" x2="1040" y2="240" opacity="0.81"></line><line x1="1120" y1="160" x2="1040" y2="240" opacity="0.81"></line><line x1="1120" y1="160" x2="1200" y2="240" opacity="0.81"></line><line x1="1280" y1="160" x2="1200" y2="240" opacity="0.81"></line><line x1="1280" y1="160" x2="1360" y2="240" opacity="0.81"></line><line x1="1360" y1="160" x2="1440" y2="240" opacity="0.81"></line><line x1="80" y1="240" x2="0" y2="320" opacity="0.72"></line><line x1="160" y1="240" x2="80" y2="320" opacity="0.72"></line><line x1="240" y1="240" x2="160" y2="320" opacity="0.72"></line><line x1="240" y1="240" x2="320" y2="320" opacity="0.72"></line><line x1="320" y1="240" x2="400" y2="320" opacity="0.72"></line><line x1="480" y1="240" x2="400" y2="320" opacity="0.72"></line><line x1="480" y1="240" x2="560" y2="320" opacity="0.72"></line><line x1="640" y1="240" x2="560" y2="320" opacity="0.72"></line><line x1="720" y1="240" x2="640" y2="320" opacity="0.72"></line><line x1="800" y1="240" x2="720" y2="320" opacity="0.72"></line><line x1="800" y1="240" x2="880" y2="320" opacity="0.72"></line><line x1="960" y1="240" x2="880" y2="320" opacity="0.72"></line><line x1="960" y1="240" x2="1040" y2="320" opacity="0.72"></line><line x1="1120" y1="240" x2="1040" y2="320" opacity="0.72"></line><line x1="1120" y1="240" x2="1200" y2="320" opacity="0.72"></line><line x1="1200" y1="240" x2="1280" y2="320" opacity="0.72"></line><line x1="1280" y1="240" x2="1360" y2="320" opacity="0.72"></line><line x1="1360" y1="240" x2="1440" y2="320" opacity="0.72"></line><line x1="0" y1="320" x2="80" y2="400" opacity="0.62"></line><line x1="80" y1="320" x2="160" y2="400" opacity="0.62"></line><line x1="160" y1="320" x2="240" y2="400" opacity="0.62"></line><line x1="240" y1="320" x2="320" y2="400" opacity="0.62"></line><line x1="400" y1="320" x2="320" y2="400" opacity="0.62"></line><line x1="480" y1="320" x2="400" y2="400" opacity="0.62"></line><line x1="480" y1="320" x2="560" y2="400" opacity="0.62"></line><line x1="560" y1="320" x2="640" y2="400" opacity="0.62"></line><line x1="720" y1="320" x2="640" y2="400" opacity="0.62"></line><line x1="720" y1="320" x2="800" y2="400" opacity="0.62"></line><line x1="800" y1="320" x2="880" y2="400" opacity="0.62"></line><line x1="880" y1="320" x2="960" y2="400" opacity="0.62"></line><line x1="1040" y1="320" x2="960" y2="400" opacity="0.62"></line><line x1="1120" y1="320" x2="1040" y2="400" opacity="0.62"></line><line x1="1120" y1="320" x2="1200" y2="400" opacity="0.62"></line><line x1="1280" y1="320" x2="1200" y2="400" opacity="0.62"></line><line x1="1280" y1="320" x2="1360" y2="400" opacity="0.62"></line><line x1="1360" y1="320" x2="1440" y2="400" opacity="0.62"></line><line x1="0" y1="400" x2="80" y2="480" opacity="0.53"></line><line x1="160" y1="400" x2="80" y2="480" opacity="0.53"></line><line x1="160" y1="400" x2="240" y2="480" opacity="0.53"></line><line x1="320" y1="400" x2="240" y2="480" opacity="0.53"></line><line x1="320" y1="400" x2="400" y2="480" opacity="0.53"></line><line x1="480" y1="400" x2="400" y2="480" opacity="0.53"></line><line x1="480" y1="400" x2="560" y2="480" opacity="0.53"></line><line x1="560" y1="400" x2="640" y2="480" opacity="0.53"></line><line x1="640" y1="400" x2="720" y2="480" opacity="0.53"></line><line x1="720" y1="400" x2="800" y2="480" opacity="0.53"></line><line x1="800" y1="400" x2="880" y2="480" opacity="0.53"></line><line x1="880" y1="400" x2="960" y2="480" opacity="0.53"></line><line x1="960" y1="400" x2="1040" y2="480" opacity="0.53"></line><line x1="1120" y1="400" x2="1040" y2="480" opacity="0.53"></line><line x1="1200" y1="400" x2="1120" y2="480" opacity="0.53"></line><line x1="1200" y1="400" x2="1280" y2="480" opacity="0.53"></line><line x1="1280" y1="400" x2="1360" y2="480" opacity="0.53"></line><line x1="1360" y1="400" x2="1440" y2="480" opacity="0.53"></line><line x1="0" y1="480" x2="80" y2="560" opacity="0.43"></line><line x1="80" y1="480" x2="160" y2="560" opacity="0.43"></line><line x1="160" y1="480" x2="240" y2="560" opacity="0.43"></line><line x1="240" y1="480" x2="320" y2="560" opacity="0.43"></line><line x1="400" y1="480" x2="320" y2="560" opacity="0.43"></line><line x1="480" y1="480" x2="400" y2="560" opacity="0.43"></line><line x1="480" y1="480" x2="560" y2="560" opacity="0.43"></line><line x1="640" y1="480" x2="560" y2="560" opacity="0.43"></line><line x1="640" y1="480" x2="720" y2="560" opacity="0.43"></line><line x1="800" y1="480" x2="720" y2="560" opacity="0.43"></line><line x1="880" y1="480" x2="800" y2="560" opacity="0.43"></line><line x1="880" y1="480" x2="960" y2="560" opacity="0.43"></line><line x1="960" y1="480" x2="1040" y2="560" opacity="0.43"></line><line x1="1040" y1="480" x2="1120" y2="560" opacity="0.43"></line><line x1="1120" y1="480" x2="1200" y2="560" opacity="0.43"></line><line x1="1200" y1="480" x2="1280" y2="560" opacity="0.43"></line><line x1="1360" y1="480" x2="1280" y2="560" opacity="0.43"></line><line x1="1360" y1="480" x2="1440" y2="560" opacity="0.43"></line><line x1="0" y1="560" x2="80" y2="640" opacity="0.34"></line><line x1="80" y1="560" x2="160" y2="640" opacity="0.34"></line><line x1="160" y1="560" x2="240" y2="640" opacity="0.34"></line><line x1="240" y1="560" x2="320" y2="640" opacity="0.34"></line><line x1="320" y1="560" x2="400" y2="640" opacity="0.34"></line><line x1="480" y1="560" x2="400" y2="640" opacity="0.34"></line><line x1="480" y1="560" x2="560" y2="640" opacity="0.34"></line><line x1="640" y1="560" x2="560" y2="640" opacity="0.34"></line><line x1="640" y1="560" x2="720" y2="640" opacity="0.34"></line><line x1="720" y1="560" x2="800" y2="640" opacity="0.34"></line><line x1="800" y1="560" x2="880" y2="640" opacity="0.34"></line><line x1="880" y1="560" x2="960" y2="640" opacity="0.34"></line><line x1="960" y1="560" x2="1040" y2="640" opacity="0.34"></line><line x1="1040" y1="560" x2="1120" y2="640" opacity="0.34"></line><line x1="1120" y1="560" x2="1200" y2="640" opacity="0.34"></line><line x1="1200" y1="560" x2="1280" y2="640" opacity="0.34"></line><line x1="1280" y1="560" x2="1360" y2="640" opacity="0.34"></line><line x1="1360" y1="560" x2="1440" y2="640" opacity="0.34"></line><line x1="80" y1="640" x2="0" y2="720" opacity="0.24"></line><line x1="80" y1="640" x2="160" y2="720" opacity="0.24"></line><line x1="240" y1="640" x2="160" y2="720" opacity="0.24"></line><line x1="240" y1="640" x2="320" y2="720" opacity="0.24"></line><line x1="320" y1="640" x2="400" y2="720" opacity="0.24"></line><line x1="400" y1="640" x2="480" y2="720" opacity="0.24"></line><line x1="480" y1="640" x2="560" y2="720" opacity="0.24"></line><line x1="560" y1="640" x2="640" y2="720" opacity="0.24"></line><line x1="640" y1="640" x2="720" y2="720" opacity="0.24"></line><line x1="720" y1="640" x2="800" y2="720" opacity="0.24"></line><line x1="800" y1="640" x2="880" y2="720" opacity="0.24"></line><line x1="960" y1="640" x2="880" y2="720" opacity="0.24"></line><line x1="960" y1="640" x2="1040" y2="720" opacity="0.24"></line><line x1="1120" y1="640" x2="1040" y2="720" opacity="0.24"></line><line x1="1200" y1="640" x2="1120" y2="720" opacity="0.24"></line><line x1="1200" y1="640" x2="1280" y2="720" opacity="0.24"></line><line x1="1280" y1="640" x2="1360" y2="720" opacity="0.24"></line><line x1="1440" y1="640" x2="1360" y2="720" opacity="0.24"></line><line x1="0" y1="720" x2="80" y2="800" opacity="0.15"></line><line x1="80" y1="720" x2="160" y2="800" opacity="0.15"></line><line x1="160" y1="720" x2="240" y2="800" opacity="0.15"></line><line x1="320" y1="720" x2="240" y2="800" opacity="0.15"></line><line x1="400" y1="720" x2="320" y2="800" opacity="0.15"></line><line x1="400" y1="720" x2="480" y2="800" opacity="0.15"></line><line x1="480" y1="720" x2="560" y2="800" opacity="0.15"></line><line x1="640" y1="720" x2="560" y2="800" opacity="0.15"></line><line x1="640" y1="720" x2="720" y2="800" opacity="0.15"></line><line x1="720" y1="720" x2="800" y2="800" opacity="0.15"></line><line x1="880" y1="720" x2="800" y2="800" opacity="0.15"></line><line x1="880" y1="720" x2="960" y2="800" opacity="0.15"></line><line x1="960" y1="720" x2="1040" y2="800" opacity="0.15"></line><line x1="1040" y1="720" x2="1120" y2="800" opacity="0.15"></line><line x1="1120" y1="720" x2="1200" y2="800" opacity="0.15"></line><line x1="1280" y1="720" x2="1200" y2="800" opacity="0.15"></line><line x1="1280" y1="720" x2="1360" y2="800" opacity="0.15"></line><line x1="1360" y1="720" x2="1440" y2="800" opacity="0.15"></line><line x1="0" y1="800" x2="80" y2="880" opacity="0.05"></line><line x1="80" y1="800" x2="160" y2="880" opacity="0.05"></line><line x1="160" y1="800" x2="240" y2="880" opacity="0.05"></line><line x1="320" y1="800" x2="240" y2="880" opacity="0.05"></line><line x1="400" y1="800" x2="320" y2="880" opacity="0.05"></line><line x1="480" y1="800" x2="400" y2="880" opacity="0.05"></line><line x1="480" y1="800" x2="560" y2="880" opacity="0.05"></line><line x1="560" y1="800" x2="640" y2="880" opacity="0.05"></line><line x1="640" y1="800" x2="720" y2="880" opacity="0.05"></line><line x1="800" y1="800" x2="720" y2="880" opacity="0.05"></line><line x1="880" y1="800" x2="800" y2="880" opacity="0.05"></line><line x1="880" y1="800" x2="960" y2="880" opacity="0.05"></line><line x1="960" y1="800" x2="1040" y2="880" opacity="0.05"></line><line x1="1040" y1="800" x2="1120" y2="880" opacity="0.05"></line><line x1="1120" y1="800" x2="1200" y2="880" opacity="0.05"></line><line x1="1200" y1="800" x2="1280" y2="880" opacity="0.05"></line><line x1="1360" y1="800" x2="1280" y2="880" opacity="0.05"></line><line x1="1360" y1="800" x2="1440" y2="880" opacity="0.05"></line></g></svg>